<svg xmlns="http://www.w3.org/2000/svg" viewBox="0 0 64 64">
  <rect width="64" height="64" fill="#8B6914"/>
  <rect y="0" width="64" height="24" fill="#6AAC2B"/>
  <rect x="0" y="0" width="8" height="8" fill="#59922A"/>
  <rect x="16" y="0" width="8" height="8" fill="#59922A"/>
  <rect x="32" y="0" width="8" height="8" fill="#7BC332"/>
  <rect x="48" y="0" width="8" height="8" fill="#59922A"/>
  <rect x="8" y="8" width="8" height="8" fill="#7BC332"/>
  <rect x="24" y="8" width="8" height="8" fill="#59922A"/>
  <rect x="40" y="8" width="8" height="8" fill="#7BC332"/>
  <rect x="56" y="8" width="8" height="8" fill="#59922A"/>
  <rect x="0" y="16" width="8" height="8" fill="#7BC332"/>
  <rect x="16" y="16" width="8" height="8" fill="#59922A"/>
  <rect x="32" y="16" width="8" height="8" fill="#6AAC2B"/>
  <rect x="48" y="16" width="8" height="8" fill="#7BC332"/>
  <rect x="0" y="24" width="8" height="8" fill="#8B6914"/>
  <rect x="8" y="24" width="8" height="8" fill="#725A12"/>
  <rect x="16" y="24" width="8" height="8" fill="#9A7B1C"/>
  <rect x="24" y="24" width="8" height="8" fill="#725A12"/>
  <rect x="32" y="24" width="8" height="8" fill="#8B6914"/>
  <rect x="40" y="24" width="8" height="8" fill="#725A12"/>
  <rect x="48" y="24" width="8" height="8" fill="#9A7B1C"/>
  <rect x="56" y="24" width="8" height="8" fill="#725A12"/>
  <rect x="0" y="32" width="8" height="8" fill="#725A12"/>
  <rect x="8" y="32" width="8" height="8" fill="#8B6914"/>
  <rect x="16" y="32" width="8" height="8" fill="#725A12"/>
  <rect x="24" y="32" width="8" height="8" fill="#9A7B1C"/>
  <rect x="32" y="32" width="8" height="8" fill="#725A12"/>
  <rect x="40" y="32" width="8" height="8" fill="#8B6914"/>
  <rect x="48" y="32" width="8" height="8" fill="#725A12"/>
  <rect x="56" y="32" width="8" height="8" fill="#9A7B1C"/>
  <rect x="0" y="40" width="8" height="8" fill="#9A7B1C"/>
  <rect x="8" y="40" width="8" height="8" fill="#725A12"/>
  <rect x="16" y="40" width="8" height="8" fill="#8B6914"/>
  <rect x="24" y="40" width="8" height="8" fill="#725A12"/>
  <rect x="32" y="40" width="8" height="8" fill="#9A7B1C"/>
  <rect x="40" y="40" width="8" height="8" fill="#725A12"/>
  <rect x="48" y="40" width="8" height="8" fill="#8B6914"/>
  <rect x="56" y="40" width="8" height="8" fill="#725A12"/>
  <rect x="0" y="48" width="8" height="8" fill="#725A12"/>
  <rect x="8" y="48" width="8" height="8" fill="#9A7B1C"/>
  <rect x="16" y="48" width="8" height="8" fill="#725A12"/>
  <rect x="24" y="48" width="8" height="8" fill="#8B6914"/>
  <rect x="32" y="48" width="8" height="8" fill="#725A12"/>
  <rect x="40" y="48" width="8" height="8" fill="#9A7B1C"/>
  <rect x="48" y="48" width="8" height="8" fill="#725A12"/>
  <rect x="56" y="48" width="8" height="8" fill="#8B6914"/>
  <rect x="0" y="56" width="8" height="8" fill="#8B6914"/>
  <rect x="8" y="56" width="8" height="8" fill="#725A12"/>
  <rect x="16" y="56" width="8" height="8" fill="#9A7B1C"/>
  <rect x="24" y="56" width="8" height="8" fill="#725A12"/>
  <rect x="32" y="56" width="8" height="8" fill="#8B6914"/>
  <rect x="40" y="56" width="8" height="8" fill="#725A12"/>
  <rect x="48" y="56" width="8" height="8" fill="#9A7B1C"/>
  <rect x="56" y="56" width="8" height="8" fill="#725A12"/>
</svg>
